<?xml version="1.0" encoding="UTF-8" standalone="no"?>
<!DOCTYPE svg PUBLIC "-//W3C//DTD SVG 1.1//EN" "http://www.w3.org/Graphics/SVG/1.1/DTD/svg11.dtd">
<svg width="100%" height="100%" viewBox="0 0 16 16" version="1.1" xmlns="http://www.w3.org/2000/svg" xmlns:xlink="http://www.w3.org/1999/xlink" xml:space="preserve" xmlns:serif="http://www.serif.com/" style="fill-rule:evenodd;clip-rule:evenodd;stroke-linejoin:round;stroke-miterlimit:2;">
    <g transform="matrix(1,0,0,1,-2346.580377,-1380.409688)">
        <g transform="matrix(0.947308,-0.947308,0.947308,0.947308,1972.935407,1605.383745)">
            <path d="M320.114,82.626C320.114,82.626 318.917,84.961 318.917,86.777C318.917,88.592 320.114,90.937 320.114,90.937C320.114,90.937 317.772,89.737 316.012,89.737C314.252,89.737 311.802,90.937 311.802,90.937C311.802,90.937 313.009,88.341 313.009,86.777C313.009,85.213 311.802,82.626 311.802,82.626C311.802,82.626 314.216,83.83 315.949,83.83C317.681,83.83 320.114,82.626 320.114,82.626Z" style="fill:rgb(235,235,235);"/>
        </g>
    </g>
</svg>
